<svg data-v-423bf9ae="" xmlns="http://www.w3.org/2000/svg" viewBox="0 0 117.59999738420758 60" class="font"><!----><!----><!----><g data-v-423bf9ae="" id="47b01ef9-44ed-4926-b124-9fae61767603" fill="black" transform="matrix(6.857142857142857,0,0,6.857142857142857,-6.240000409739352,-41.76000104631696)"><path d="M8.60 7.21L8.60 14.41Q8.40 14.60 8.03 14.71Q7.66 14.81 7.14 14.81L7.14 14.81Q6.62 14.81 6.16 14.66Q5.70 14.50 5.40 13.92L5.40 13.92L4.02 11.09Q3.81 10.65 3.64 10.27Q3.47 9.88 3.28 9.38L3.28 9.38L3.19 9.39Q3.25 10.15 3.25 10.93Q3.26 11.72 3.26 12.47L3.26 12.47L3.26 14.64Q3.11 14.69 2.79 14.73Q2.48 14.77 2.17 14.77L2.17 14.77Q1.86 14.77 1.62 14.73Q1.39 14.69 1.23 14.56Q1.08 14.43 0.99 14.22Q0.91 14.00 0.91 13.65L0.91 13.65L0.91 6.65Q1.11 6.37 1.51 6.23Q1.92 6.09 2.38 6.09L2.38 6.09Q2.90 6.09 3.37 6.25Q3.84 6.41 4.12 6.99L4.12 6.99L5.52 9.81Q5.73 10.25 5.89 10.63Q6.06 11.02 6.26 11.52L6.26 11.52L6.33 11.51Q6.27 10.75 6.26 10.00Q6.24 9.24 6.24 8.48L6.24 8.48L6.24 6.22Q6.40 6.17 6.71 6.13Q7.03 6.09 7.34 6.09L7.34 6.09Q7.95 6.09 8.27 6.31Q8.60 6.52 8.60 7.21L8.60 7.21ZM15.50 14.42L15.50 14.42Q15.30 14.59 14.89 14.71Q14.48 14.84 13.99 14.84L13.99 14.84Q13.40 14.84 12.98 14.67Q12.56 14.49 12.40 14.18L12.40 14.18Q12.25 13.86 12.03 13.35Q11.80 12.84 11.56 12.21Q11.31 11.58 11.05 10.87Q10.79 10.16 10.56 9.44Q10.32 8.71 10.11 8.01Q9.90 7.31 9.74 6.69L9.74 6.69Q9.94 6.50 10.31 6.34Q10.68 6.17 11.10 6.17L11.10 6.17Q11.62 6.17 11.95 6.39Q12.28 6.61 12.43 7.20L12.43 7.20Q12.81 8.57 13.20 9.82Q13.58 11.07 14 12.43L14 12.43L14.08 12.43Q14.46 11.12 14.86 9.56Q15.26 8.01 15.62 6.47L15.62 6.47Q15.88 6.34 16.16 6.26Q16.45 6.17 16.81 6.17L16.81 6.17Q17.33 6.17 17.70 6.41Q18.06 6.64 18.06 7.17L18.06 7.17Q18.06 7.48 17.91 8.06Q17.77 8.65 17.54 9.39Q17.30 10.12 17.02 10.92Q16.73 11.72 16.44 12.43Q16.16 13.13 15.90 13.67Q15.65 14.21 15.50 14.42Z"></path></g><!----><!----></svg>