<svg xmlns="http://www.w3.org/2000/svg" enable-background="new 0 0 256 256" viewBox="0 0 256 256" id="adobe-bridge">
  <path fill="#000b1d" d="M50.5,12h155C229,12,248,31,248,54.5v147c0,23.5-19,42.5-42.5,42.5h-155C27,244,8,225,8,201.5v-147
		C8,31,27,12,50.5,12z"></path>
  <path fill="#fff" d="M63.1 175.2L63 73c0-1 .3-1.5 1-1.6 1.8-.1 4.6-.2 8.4-.2 3.8-.1 7.4-.1 11.8-.2 4.4-.1 8.4-.1 12.1-.1 8.8 0 16 .6 21.2 2.6 5.2 1.9 9.2 4.4 12 7.3 2.7 2.6 4.7 5.8 5.9 9.3.9 2.9 1.4 5.8 1.4 8.9 0 3.2-.7 6.4-1.9 9.4-.9 2.5-2.2 4.8-3.9 6.8-1.2 1.6-2.7 2.9-4.3 4 2.3 1.2 4.4 2.7 6.4 4.4 2.5 2.2 4.6 5 6 8 1.9 3.8 2.9 8 2.8 12.2 0 6.2-1.9 12.3-5.6 17.3-3.6 4.9-8.7 8.8-15.5 11.5-7.7 3-15.8 4.5-24.1 4.3H86.1c-3.4 0-6.2 0-9.1-.1-2.8-.1-5.3-.1-7.4-.2-2.1-.1-3.9-.1-5.4-.1C63.4 176.5 63.1 176 63.1 175.2zM84.8 89.9l.1 22.3h10.5c2.9 0 5.7.1 8.5.2 2 0 4 .2 6 .6 1.4-1.2 2.6-2.7 3.5-4.3 1.1-1.9 1.6-4 1.6-6.2 0-2.6-.8-5.2-2.4-7.4-1.6-1.9-3.7-3.4-6-4.1-3.3-1-6.7-1.4-10.2-1.3h-4.7c-1.4 0-2.3 0-3.4.1C87.3 89.8 86.1 89.9 84.8 89.9zM84.9 130.9v26.8c1.8.1 3.2.2 5.1.2 1.8.1 4 .1 6.6.1 3.9.1 7.9-.4 11.7-1.4 2.9-.7 5.6-2.3 7.6-4.5 1.9-2.1 3-4.8 3.1-7.6-.1-2.7-1-5.4-2.7-7.6-1.4-2.1-4-3.9-7.7-4.9-1.5-.4-2.9-.6-4.4-.8-2-.2-3.9-.3-5.9-.3L84.9 130.9zM156.2 96h17.5c1 0 1.8.7 2.1 1.6.4.7.7 1.5.8 2.3.2 1 .4 2.1.5 3.1.1 1.1.2 2.7.2 4 3-3.6 6.6-6.7 10.7-9 4.3-2.4 8.9-3 14.5-3 .7-.1 1.3.4 1.4 1.1 0 .1 0 .2 0 .4v19.2c0 .8-.5 1.1-1.6 1.1-3.4-.2-6.8 0-10.2.7-2.9.6-5.7 1.5-8.4 2.7-2.2.9-4.2 2.1-5.9 3.7v50.7c0 1-.4 1.4-1.3 1.4h-19c-.8.1-1.5-.4-1.6-1.2 0-.1 0-.3 0-.4v-55c0-2.4 0-4.9-.1-7.5-.1-2.6-.1-5.2-.2-7.8-.1-2.3-.3-4.7-.6-7-.1-.5.2-1 .7-1.1C155.9 96 156 96 156.2 96z"></path>
</svg>
